<svg width="30" height="30" viewBox="0 0 30 30" fill="none" xmlns="http://www.w3.org/2000/svg">
<path d="M15.1408 27L15.1409 26L15.1408 26L15.1408 27ZM5 21.5577L4.00011 21.5426L3.99544 21.8524L4.16667 22.1105L5 21.5577ZM25.2817 21.5577L26.115 22.1105L26.2862 21.8524L26.2816 21.5426L25.2817 21.5577ZM15.1408 4C17.3942 4 19.2113 5.81707 19.2113 8.07042H21.2113C21.2113 4.7125 18.4988 2 15.1408 2V4ZM19.2113 8.07042C19.2113 10.3238 17.3942 12.1408 15.1408 12.1408V14.1408C18.4988 14.1408 21.2113 11.4283 21.2113 8.07042H19.2113ZM15.1408 12.1408C12.8875 12.1408 11.0704 10.3238 11.0704 8.07042H9.07041C9.07041 11.4283 11.7829 14.1408 15.1408 14.1408V12.1408ZM11.0704 8.07042C11.0704 5.81707 12.8875 4 15.1408 4V2C11.7829 2 9.07041 4.7125 9.07041 8.07042H11.0704ZM15.1408 26C11.3973 26 7.90268 24.1245 5.83333 21.0049L4.16667 22.1105C6.60658 25.7887 10.727 28 15.1409 28L15.1408 26ZM5.99989 21.5728C6.00715 21.0911 6.24824 20.5856 6.81435 20.0551C7.38468 19.5206 8.21578 19.0311 9.20769 18.6162C11.1956 17.7847 13.5872 17.3521 15.1408 17.3521V15.3521C13.3142 15.3521 10.6607 15.8406 8.43597 16.7711C7.32154 17.2372 6.25441 17.8389 5.44674 18.5957C4.63486 19.3566 4.0182 20.3426 4.00011 21.5426L5.99989 21.5728ZM15.1408 17.3521C16.6857 17.3521 19.0775 17.7846 21.068 18.6163C22.0612 19.0313 22.894 19.521 23.4657 20.0557C24.0333 20.5866 24.2746 21.092 24.2818 21.5728L26.2816 21.5426C26.2635 20.3417 25.6449 19.3556 24.8319 18.5951C24.0229 17.8384 22.9543 17.2369 21.8391 16.7709C19.6127 15.8407 16.9594 15.3521 15.1408 15.3521V17.3521ZM24.4484 21.0049C22.379 24.1245 18.8844 26 15.1409 26L15.1408 28C19.5547 28 23.6751 25.7887 26.115 22.1105L24.4484 21.0049Z" fill="#ABB4BD"/>
</svg>
