<svg width="49" height="50" viewBox="0 0 49 50" fill="none" xmlns="http://www.w3.org/2000/svg">
<g filter="url(#filter0_d)">
<ellipse cx="24.5" cy="24" rx="16.5" ry="17" fill="#2A2C36"/>
</g>
<path fill-rule="evenodd" clip-rule="evenodd" d="M27.9823 18.6667C26.8444 18.6667 25.7523 19.1964 25.0395 20.0334C24.3267 19.1964 23.2346 18.6667 22.0967 18.6667C20.0826 18.6667 18.5 20.2492 18.5 22.2634C18.5 24.7354 20.7234 26.7495 24.0913 29.81L25.0395 30.6667L25.9877 29.8035C29.3556 26.7495 31.579 24.7354 31.579 22.2634C31.579 20.2492 29.9965 18.6667 27.9823 18.6667ZM25.1049 28.8356L25.0395 28.901L24.9741 28.8356C21.8613 26.0171 19.8079 24.1533 19.8079 22.2634C19.8079 20.9555 20.7888 19.9746 22.0967 19.9746C23.1038 19.9746 24.0847 20.622 24.4313 21.5179H25.6542C25.9943 20.622 26.9752 19.9746 27.9823 19.9746C29.2902 19.9746 30.2711 20.9555 30.2711 22.2634C30.2711 24.1533 28.2177 26.0171 25.1049 28.8356Z" fill="#ABB4BD"/>
<defs>
<filter id="filter0_d" x="0" y="0" width="49" height="50" filterUnits="userSpaceOnUse" color-interpolation-filters="sRGB">
<feFlood flood-opacity="0" result="BackgroundImageFix"/>
<feColorMatrix in="SourceAlpha" type="matrix" values="0 0 0 0 0 0 0 0 0 0 0 0 0 0 0 0 0 0 127 0"/>
<feOffset dy="1"/>
<feGaussianBlur stdDeviation="4"/>
<feColorMatrix type="matrix" values="0 0 0 0 0.0416667 0 0 0 0 0.0416667 0 0 0 0 0.0416667 0 0 0 0.26 0"/>
<feBlend mode="normal" in2="BackgroundImageFix" result="effect1_dropShadow"/>
<feBlend mode="normal" in="SourceGraphic" in2="effect1_dropShadow" result="shape"/>
</filter>
</defs>
</svg>
